<svg xmlns="http://www.w3.org/2000/svg" viewBox="0 0 2048 2048">
  <path d="M1792 256v1792H256V256h512q0-53 20-99t55-82 81-55 100-20q53 0 99 20t82 55 55 81 20 100h512zM640 512h768V384h-256V256q0-27-10-50t-27-40-41-28-50-10q-27 0-50 10t-40 27-28 41-10 50v128H640v128zm1024-128h-128v256H512V384H384v1536h1280V384zm-143 759l-123 51q10 40 10 86t-10 86l123 51-48 118-124-51q-46 75-121 121l51 124-118 48-51-123q-40 10-86 10t-86-10l-51 123-118-48 51-124q-75-46-121-121l-124 51-48-118 123-51q-10-40-10-86t10-86l-123-51 48-118 124 51q46-75 121-121l-51-124 118-48 51 123q40-10 86-10t86 10l51-123 118 48-51 124q75 46 121 121l124-51 48 118zm-497 393q53 0 99-20t82-55 55-81 20-100q0-53-20-99t-55-82-81-55-100-20q-53 0-99 20t-82 55-55 81-20 100q0 53 20 99t55 82 81 55 100 20z" />
</svg>